<?xml version="1.0"?>
<svg xmlns="http://www.w3.org/2000/svg" xmlns:xlink="http://www.w3.org/1999/xlink" version="1.1" viewBox="0 0 192 192" width="24px" height="24px"><g fill="none" fill-rule="nonzero" stroke="none" stroke-width="1" stroke-linecap="butt" stroke-linejoin="miter" stroke-miterlimit="10" stroke-dasharray="" stroke-dashoffset="0" font-family="none" font-weight="none" font-size="none" text-anchor="none" style="mix-blend-mode: normal"><path d="M0,192v-192h192v192z" fill="none"/><g fill="#ffffff"><path d="M96,8c-26.59048,0 -48,21.40952 -48,48v8c-8.8,0 -16,7.2 -16,16v80c0,8.8 7.2,16 16,16h96c8.8,0 16,-7.2 16,-16v-80c0,-8.8 -7.2,-16 -16,-16v-8c0,-26.59048 -21.40952,-48 -48,-48zM96,24c18.20952,0 32,13.79048 32,32v8h-64v-8c0,-18.20952 13.79048,-32 32,-32zM96,104c8.8,0 16,7.2 16,16c0,8.8 -7.2,16 -16,16c-8.8,0 -16,-7.2 -16,-16c0,-8.8 7.2,-16 16,-16z"/></g></g></svg>
