<?xml version="1.0" encoding="UTF-8"?>
<svg width="77px" height="77px" viewBox="0 0 77 77" version="1.1" xmlns="http://www.w3.org/2000/svg" xmlns:xlink="http://www.w3.org/1999/xlink">
    <!-- Generator: Sketch 51.3 (57544) - http://www.bohemiancoding.com/sketch -->
    <title>Group 2</title>
    <desc>Created with Sketch.</desc>
    <defs></defs>
    <g id="Page-1" stroke="none" stroke-width="1" fill="none" fill-rule="evenodd">
        <g id="flatIconSet-" transform="translate(-282.000000, -187.000000)">
            <g id="Group-2" transform="translate(282.000000, 187.000000)">
                <polygon id="Fill-56" fill="#369ECC" points="0.827 76.106 76.188 76.106 76.188 0.744 0.827 0.744"></polygon>
                <path d="M63.626,22.843 C61.777,23.664 59.79,24.218 57.706,24.466 C59.834,23.19 61.471,21.172 62.238,18.764 C60.249,19.945 58.044,20.804 55.695,21.267 C53.814,19.262 51.134,18.011 48.17,18.011 C42.478,18.011 37.862,22.626 37.862,28.318 C37.862,29.127 37.954,29.912 38.128,30.666 C29.563,30.238 21.969,26.135 16.884,19.896 C15.998,21.421 15.489,23.19 15.489,25.08 C15.489,28.654 17.308,31.811 20.073,33.658 C18.384,33.606 16.795,33.14 15.405,32.369 L15.405,32.499 C15.405,37.492 18.959,41.658 23.672,42.605 C22.809,42.84 21.896,42.969 20.956,42.969 C20.294,42.969 19.646,42.902 19.018,42.781 C20.329,46.877 24.135,49.855 28.645,49.941 C25.12,52.705 20.676,54.353 15.843,54.353 C15.013,54.353 14.193,54.303 13.387,54.209 C17.948,57.131 23.366,58.838 29.189,58.838 C48.147,58.838 58.514,43.135 58.514,29.513 C58.514,29.067 58.502,28.623 58.485,28.177 C60.495,26.727 62.241,24.911 63.626,22.843" id="Fill-57" fill="#FFFFFE"></path>
            </g>
        </g>
    </g>
</svg>